HIERARCHY
ROOT Hips
{
	OFFSET	0.00	0.00	0.00
	CHANNELS 6 Xposition Yposition Zposition Zrotation Xrotation Yrotation
	JOINT LeftUpLeg
	{
		OFFSET	 0.126116	-0.014019	-0.065224
		CHANNELS 3 Zrotation Xrotation Yrotation
		JOINT LeftLeg
		{
			OFFSET	 0.000000	 0.000000	 0.569914
			CHANNELS 3 Zrotation Xrotation Yrotation
			JOINT LeftFoot
			{
				OFFSET	 0.000000	 0.000000	 0.544423
				CHANNELS 3 Zrotation Xrotation Yrotation
				JOINT LeftToeBase
				{
					OFFSET	 0.000000	 0.000000	 0.207117
					CHANNELS 3 Zrotation Xrotation Yrotation
					End Site
					{
						OFFSET	 0.000000	 0.000000	 0.207117
					}
				}
			}
		}
	}
	JOINT RightUpLeg
	{
		OFFSET	-0.124023	-0.008373	-0.065224
		CHANNELS 3 Zrotation Xrotation Yrotation
		JOINT RightLeg
		{
			OFFSET	 0.000000	 0.000000	 0.570047
			CHANNELS 3 Zrotation Xrotation Yrotation
			JOINT RightFoot
			{
				OFFSET	 0.000000	 0.000000	 0.544354
				CHANNELS 3 Zrotation Xrotation Yrotation
				JOINT RightToeBase
				{
					OFFSET	 0.000000	 0.000000	 0.207540
					CHANNELS 3 Zrotation Xrotation Yrotation
					End Site
					{
						OFFSET	 0.000000	 0.000000	 0.207540
					}
				}
			}
		}
	}
	JOINT Spine
	{
		OFFSET	 0.000184	-0.007763	 0.117403
		CHANNELS 3 Zrotation Xrotation Yrotation
		JOINT Spine1
		{
			OFFSET	 0.000000	 0.000000	 0.137269
			CHANNELS 3 Zrotation Xrotation Yrotation
			JOINT Spine2
			{
				OFFSET	 0.000000	 0.000000	 0.156879
				CHANNELS 3 Zrotation Xrotation Yrotation
				JOINT LeftShoulder
				{
					OFFSET	 0.080501	-0.002496	 0.160144
					CHANNELS 3 Zrotation Xrotation Yrotation
					JOINT LeftArm
					{
						OFFSET	 0.000000	 0.000000	 0.164363
						CHANNELS 3 Zrotation Xrotation Yrotation
						JOINT LeftForeArm
						{
							OFFSET	 0.000000	 0.000000	 0.364576
							CHANNELS 3 Zrotation Xrotation Yrotation
							JOINT LeftHand
							{
								OFFSET	 0.000000	 0.000000	 0.360812
								CHANNELS 3 Zrotation Xrotation Yrotation
								JOINT LeftHandIndex1
								{
									OFFSET	 0.000000	 0.000000	 0.086006
									CHANNELS 3 Zrotation Xrotation Yrotation
									JOINT LeftHandIndex2
									{
										OFFSET	 0.000000	 0.000000	 0.047236
										CHANNELS 3 Zrotation Xrotation Yrotation
										JOINT LeftHandIndex3
										{
											OFFSET	-0.004284	-0.000551	 0.038166
											CHANNELS 3 Zrotation Xrotation Yrotation
											End Site
											{
												OFFSET	-0.004284	-0.000551	 0.038166
											}
										}
									}
								}
							}
						}
					}
				}
				JOINT Neck
				{
					OFFSET	 0.000000	 0.000000	 0.176489
					CHANNELS 3 Zrotation Xrotation Yrotation
					JOINT Head
					{
						OFFSET	 0.000000	-0.001747	 0.077940
						CHANNELS 3 Zrotation Xrotation Yrotation
						End Site
						{
							OFFSET	 0.000000	-0.001747	 0.077940
						}
					}
				}
				JOINT RightShoulder
				{
					OFFSET	-0.080363	 0.000306	 0.159706
					CHANNELS 3 Zrotation Xrotation Yrotation
					JOINT RightArm
					{
						OFFSET	 0.000000	 0.000000	 0.164196
						CHANNELS 3 Zrotation Xrotation Yrotation
						JOINT RightForeArm
						{
							OFFSET	 0.000000	 0.000000	 0.365611
							CHANNELS 3 Zrotation Xrotation Yrotation
							JOINT RightHand
							{
								OFFSET	 0.000000	 0.000000	 0.360648
								CHANNELS 3 Zrotation Xrotation Yrotation
								JOINT RightHandIndex1
								{
									OFFSET	 0.000000	 0.000000	 0.069977
									CHANNELS 3 Zrotation Xrotation Yrotation
									JOINT RightHandIndex2
									{
										OFFSET	 0.000000	 0.000000	 0.052305
										CHANNELS 3 Zrotation Xrotation Yrotation
										JOINT RightHandIndex3
										{
											OFFSET	 0.009002	-0.000782	 0.042196
											CHANNELS 3 Zrotation Xrotation Yrotation
											End Site
											{
												OFFSET	 0.009002	-0.000782	 0.042196
											}
										}
									}
								}
							}
						}
					}
				}
			}
		}
	}
}
MOTION
Frames:    8
Frame Time: 0.03333334
 0.000157	 0.019710	 1.271334	-0.001945	 0.004727	 0.127921	 0.391408	-1.659339	 177.552500	 1.476732	-11.675090	-0.681119	-7.495023	 70.891300	 1.426177	-2.385833	 28.452760	 0.000004	-0.523545	-1.827786	-177.769900	-1.464990	-11.531630	 0.660154	 7.218530	 70.672570	-1.296782	 2.384658	 28.388730	 0.000004	-3.749543	 2.720749	 0.245785	-1.593723	 3.655392	-0.593756	 4.829117	-4.569663	 1.040264	-91.776180	 78.527470	 180.000000	 45.937920	 36.017550	-63.618550	-8.558528	 0.182982	-0.676781	-31.080550	-16.874940	-4.657569	-2.635965	 4.993658	 6.788941	-5.165319	 0.784187	 3.516649	-5.225038	 0.466231	 0.424329	-0.000002	-3.783157	-0.089647	 4.697092	 4.836475	-0.198488	 89.782120	 78.203870	 180.000000	-63.955440	 41.929750	 56.435420	 8.258435	 4.155570	 9.501423	 31.953520	-17.483370	 9.498378	 6.112037	 4.509576	-0.364401	 4.968462	 1.518543	-9.347576	 5.168945	 0.703820	 2.021906
 0.000164	 0.019626	 1.272758	-0.001945	 0.004727	 0.127921	 0.724670	-1.676467	 177.528900	 1.476733	-11.675090	-0.681119	-7.470271	 70.646710	 1.407446	-2.385833	 28.452760	 0.000004	-0.856944	-1.843513	-177.747700	-1.464990	-11.531510	 0.660147	 7.192373	 70.428990	-1.276160	 2.384658	 28.388730	 0.000004	-8.061385	 2.720750	 0.245785	-1.593722	 3.655400	-0.593769	 4.829113	-4.569666	 1.040270	-91.776150	 78.527470	 180.000000	 45.854870	 35.955730	-63.470380	-11.462630	 0.317128	-2.400278	-34.559650	-22.612310	-6.016750	-2.635965	 4.993658	 6.788941	-5.165319	 0.784187	 3.516649	-5.225038	 0.466231	 0.424329	-0.000002	-3.783157	-0.089647	 4.697110	 4.836498	-0.198490	 89.782160	 78.203890	 179.999900	-63.314080	 41.625200	 57.467530	 10.687490	 4.938398	 11.597400	 35.747150	-23.109970	 10.959990	 6.112037	 4.509576	-0.364401	 4.968462	 1.518543	-9.347576	 5.168945	 0.703820	 2.021906
 0.000173	 0.019540	 1.274300	-0.001941	 0.004729	 0.127927	 1.077517	-1.694699	 177.504100	 1.476739	-11.674980	-0.681112	-7.444060	 70.387810	 1.387743	-2.385833	 28.452760	 0.000004	-1.209969	-1.860231	-177.724300	-1.464997	-11.531230	 0.660130	 7.164717	 70.171130	-1.254518	 2.384658	 28.388730	 0.000004	-12.475050	 2.720747	 0.245777	-1.593721	 3.655406	-0.593783	 4.829097	-4.569663	 1.040282	-91.776110	 78.527470	 179.999900	 45.744340	 35.871190	-63.271140	-14.459900	 0.640360	-4.168962	-38.445320	-28.088180	-8.145318	-2.635965	 4.993658	 6.788941	-5.165319	 0.784187	 3.516649	-5.225038	 0.466231	 0.424329	-0.000002	-3.783157	-0.089647	 4.697118	 4.836493	-0.198490	 89.782140	 78.203900	 180.000000	-62.386070	 40.866400	 59.058530	 12.846810	 6.258674	 14.348570	 40.168130	-28.747920	 13.146580	 6.112037	 4.509576	-0.364401	 4.968462	 1.518543	-9.347576	 5.168945	 0.703820	 2.021906
 0.000181	 0.019464	 1.275791	-0.001945	 0.004727	 0.127921	 1.422772	-1.712723	 177.479900	 1.476737	-11.674960	-0.681111	-7.418450	 70.134650	 1.368657	-2.385833	 28.452760	 0.000004	-1.555343	-1.876860	-177.701600	-1.464990	-11.531250	 0.660133	 7.137826	 69.919100	-1.233624	 2.384658	 28.388730	 0.000004	-16.582710	 2.720750	 0.245784	-1.593721	 3.655399	-0.593772	 4.829113	-4.569665	 1.040272	-91.776120	 78.527430	 179.999900	 45.609480	 35.771610	-63.027430	-17.300950	 1.123913	-5.831048	-42.412180	-32.517250	-10.775540	-2.635965	 4.993658	 6.788941	-5.165319	 0.784187	 3.516649	-5.225038	 0.466231	 0.424329	-0.000002	-3.783157	-0.089647	 4.697110	 4.836499	-0.198490	 89.782140	 78.203870	 180.000000	-60.684310	 39.707520	 59.792730	 14.289540	 9.099109	 19.312840	 44.676490	-33.456480	 15.862680	 6.112037	 4.509576	-0.364401	 4.968462	 1.518543	-9.347576	 5.168945	 0.703820	 2.021906
 0.000189	 0.019399	 1.277286	-0.001945	 0.004727	 0.127921	 1.765437	-1.730826	 177.456000	 1.476733	-11.675080	-0.681118	-7.393060	 69.883580	 1.349885	-2.385833	 28.452760	 0.000004	-1.898154	-1.893564	-177.679100	-1.464993	-11.531380	 0.660140	 7.111230	 69.669150	-1.213138	 2.384658	 28.388730	 0.000004	-20.378230	 2.720749	 0.245784	-1.593721	 3.655399	-0.593771	 4.829113	-4.569664	 1.040272	-91.776120	 78.527430	 179.999900	 45.453480	 35.650920	-62.742020	-20.006850	 1.745794	-7.389970	-46.342240	-35.731380	-13.644310	-2.635965	 4.993658	 6.788941	-5.165319	 0.784187	 3.516649	-5.225038	 0.466231	 0.424329	-0.000002	-3.783157	-0.089647	 4.697110	 4.836499	-0.198490	 89.782160	 78.203850	 179.999900	-58.944050	 38.540360	 63.057710	 15.674980	 10.633340	 21.558970	 48.977600	-37.050330	 18.802400	 6.112037	 4.509576	-0.364401	 4.968462	 1.518543	-9.347576	 5.168945	 0.703820	 2.021906
 0.000196	 0.019334	 1.278746	-0.001945	 0.004727	 0.127921	 2.112828	-1.749261	 177.431900	 1.476734	-11.675080	-0.681118	-7.367304	 69.629140	 1.330976	-2.385833	 28.452760	 0.000004	-2.245675	-1.910558	-177.656400	-1.464995	-11.531380	 0.660139	 7.084322	 69.415810	-1.192534	 2.384658	 28.388730	 0.000004	-23.865880	 2.720750	 0.245784	-1.593720	 3.655385	-0.593762	 4.829104	-4.569652	 1.040274	-91.776210	 78.527450	-180.000000	 45.274540	 35.512480	-62.412620	-22.610650	 2.495972	-8.861104	-50.029630	-37.619280	-16.409880	-2.635965	 4.993658	 6.788941	-5.165319	 0.784187	 3.516649	-5.225038	 0.466231	 0.424329	-0.000002	-3.783157	-0.089647	 4.697118	 4.836493	-0.198490	 89.782190	 78.203890	 179.999900	-57.152480	 37.235350	 68.043790	 16.984340	 11.020190	 21.833230	 52.584200	-39.511300	 21.499620	 6.112037	 4.509576	-0.364401	 4.968462	 1.518543	-9.347576	 5.168945	 0.703820	 2.021906
 0.000204	 0.019265	 1.280047	-0.001941	 0.004729	 0.127927	 2.453647	-1.767507	 177.408300	 1.476737	-11.675110	-0.681119	-7.342027	 69.379620	 1.312558	-2.385833	 28.452760	 0.000004	-2.586616	-1.927369	-177.634200	-1.464993	-11.531380	 0.660139	 7.057962	 69.167410	-1.172493	 2.384658	 28.388730	 0.000004	-26.868400	 2.720748	 0.245777	-1.593721	 3.655392	-0.593772	 4.829100	-4.569654	 1.040278	-91.776080	 78.527430	 179.999900	 45.087220	 35.363890	-62.062920	-25.101060	 3.320047	-10.183050	-52.928490	-38.076130	-18.529280	-2.635965	 4.993658	 6.788941	-5.165319	 0.784187	 3.516649	-5.225038	 0.466231	 0.424329	-0.000002	-3.783157	-0.089647	 4.697118	 4.836493	-0.198490	 89.782100	 78.203900	 180.000000	-55.038070	 35.671420	 72.492530	 17.438180	 11.602860	 22.606630	 54.668170	-40.917880	 23.177680	 6.112037	 4.509576	-0.364401	 4.968462	 1.518543	-9.347576	 5.168945	 0.703820	 2.021906
 0.000212	 0.019197	 1.281224	-0.001945	 0.004727	 0.127921	 2.790883	-1.785685	 177.385100	 1.476738	-11.675100	-0.681119	-7.316992	 69.132800	 1.294449	-2.385833	 28.452760	 0.000004	-2.923955	-1.944194	-177.612400	-1.464991	-11.531490	 0.660146	 7.031948	 68.921750	-1.152868	 2.384658	 28.388730	 0.000004	-29.373310	 2.720749	 0.245784	-1.593722	 3.655399	-0.593767	 4.829112	-4.569667	 1.040269	-91.776180	 78.527470	 180.000000	 44.887490	 35.203250	-61.687560	-27.326150	 4.191190	-11.363610	-55.041150	-37.223240	-19.757580	-2.635965	 4.993658	 6.788941	-5.165319	 0.784187	 3.516649	-5.225038	 0.466231	 0.424329	-0.000002	-3.783157	-0.089647	 4.697092	 4.836475	-0.198488	 89.782180	 78.203850	 179.999900	-52.867320	 34.059230	 78.284270	 17.922760	 10.820760	 21.249250	 55.538000	-41.083070	 23.773900	 6.112037	 4.509576	-0.364401	 4.968462	 1.518543	-9.347576	 5.168945	 0.703820	 2.021906
